<?xml version="1.0" encoding="UTF-8"?>
<svg id="Layer_1" xmlns="http://www.w3.org/2000/svg" version="1.1" viewBox="0 0 1920 1080">
  <!-- Generator: Adobe Illustrator 30.0.0, SVG Export Plug-In . SVG Version: 2.1.1 Build 123)  -->
  <defs>
    <style>
      .st0 {
        fill: #fff;
      }
    </style>
  </defs>
  <polygon class="st0" points="384.89 411.01 384.89 590.65 107.81 398.79 107.81 665.2 151.91 665.2 151.91 485.24 428.72 677.44 428.72 411.01 384.89 411.01"/>
  <path class="st0" d="M1848.96,596.43c0,24.29-6.18,43.99-18.38,58.52-12.48,14.84-31.84,22.36-57.54,22.36h-206.13l33.65-51.36h168.76c22.48,0,32.52-9.33,32.52-30.22,0-9.88-2.26-16.67-6.88-20.77-4.99-4.37-13.58-6.61-25.63-6.61h-130.77c-24.93,0-43.77-7.19-56.04-21.38-12.05-13.95-18.17-32.88-18.17-56.28s6.12-43.13,18.14-57.32c12.27-14.47,31.14-21.78,56.07-21.78h201.24l-33.62,51.36h-165.05c-10.71,0-18.41,2.23-22.85,6.64-4.31,4.31-6.52,11.62-6.52,21.81,0,9.57,2.08,16.36,6.18,20.19,4.37,4.07,12.17,6.12,23.19,6.12h131.93c25.66,0,44.96,7.25,57.44,21.53,12.27,14.07,18.48,33.34,18.48,57.2Z"/>
  <g>
    <polygon class="st0" points="799.3 677.21 904.4 677.21 1049.31 531.9 904.4 411.17 799.3 411.17 799.07 410.98 943.61 533.23 799.3 677.21"/>
    <polygon class="st0" points="1192.39 677.44 1094.41 677.44 1018.22 602.49 1060.94 559.69 1192.39 677.44"/>
    <polygon class="st0" points="1244.33 293.99 1195.59 417.97 1185.14 385.01 1063.4 503.12 1028.46 474.03 1152.21 352.09 1118.78 341.16 1244.33 293.99"/>
  </g>
  <g>
    <path class="st0" d="M533.62,493.82v100.81c0,17.29,14.02,31.31,31.31,31.31h183.45l-33.71,51.51h-149.48c-43.3,0-78.4-35.1-78.4-78.4v-109.65c0-43.3,35.1-78.4,78.4-78.4h183.22v51.51h-183.48c-17.29,0-31.31,14.02-31.31,31.31Z"/>
    <polygon class="st0" points="748.42 517.42 748.42 568.19 548.7 568.19 581.92 517.42 748.42 517.42"/>
  </g>
  <path class="st0" d="M1488.69,411.01c0,23.93-.37,47.87-.06,71.79.33,24.97.93,50.1-2.79,74.88-3.16,21.08-10.36,43.08-27.24,56.1-18.32,14.13-43.37,14.41-66.5,14.97-14.33.34-28.74,1.02-42.92-1.1-14.17-2.12-28.3-7.28-38.69-17.14-15.86-15.06-20.55-38.25-22.73-60.01-1.11-11.1-3.59-139.48-1.92-139.48,0,0-45.17,0-45.17,0,0,56.38-4.33,115.35,6.08,170.96,5.62,30.04,19.29,60.21,44.58,77.37,26.94,18.28,61.74,18.77,94.3,18.7,33.49-.08,69.34-.78,96.77-19.99,23.94-16.77,37.31-45.26,43.22-73.9,11.52-55.89,6.91-115.71,6.91-172.54v-.6s-43.84,0-43.84,0Z"/>
</svg>